<?xml version="1.0" encoding="UTF-8" standalone="no"?>
<svg
   xmlns:dc="http://purl.org/dc/elements/1.1/"
   xmlns:cc="http://creativecommons.org/ns#"
   xmlns:rdf="http://www.w3.org/1999/02/22-rdf-syntax-ns#"
   xmlns:svg="http://www.w3.org/2000/svg"
   xmlns="http://www.w3.org/2000/svg"
   xmlns:sodipodi="http://sodipodi.sourceforge.net/DTD/sodipodi-0.dtd"
   xmlns:inkscape="http://www.inkscape.org/namespaces/inkscape"
   version="1.1"
   viewBox="0 0 586.89758 280"
   stroke-miterlimit="10"
   id="svg2"
   inkscape:version="0.91 r13725"
   sodipodi:docname="discovery_settings.svg"
   width="586.89758"
   height="280"
   style="fill:none;stroke:none;stroke-linecap:square;stroke-miterlimit:10">
  <metadata
     id="metadata69">
    <rdf:RDF>
      <cc:Work
         rdf:about="">
        <dc:format>image/svg+xml</dc:format>
        <dc:type
           rdf:resource="http://purl.org/dc/dcmitype/StillImage" />
        <dc:title></dc:title>
      </cc:Work>
    </rdf:RDF>
  </metadata>
  <defs
     id="defs67" />
  <sodipodi:namedview
     pagecolor="#ffffff"
     bordercolor="#666666"
     borderopacity="1"
     objecttolerance="10"
     gridtolerance="10"
     guidetolerance="10"
     inkscape:pageopacity="0"
     inkscape:pageshadow="2"
     inkscape:window-width="640"
     inkscape:window-height="480"
     id="namedview65"
     showgrid="false"
     inkscape:zoom="0.32777778"
     inkscape:cx="293.44882"
     inkscape:cy="103.93701"
     inkscape:window-x="75"
     inkscape:window-y="34"
     inkscape:window-maximized="0"
     inkscape:current-layer="svg2"
     fit-margin-top="0"
     fit-margin-left="0"
     fit-margin-right="0"
     fit-margin-bottom="0" />
  <clipPath
     id="p.0">
    <path
       d="M 0,0 960,0 960,720 0,720 0,0 Z"
       id="path5"
       inkscape:connector-curvature="0"
       style="clip-rule:nonzero" />
  </clipPath>
  <path
     style="fill:#000000;fill-opacity:0;fill-rule:nonzero"
     inkscape:connector-curvature="0"
     id="path9"
     d="m -186.55118,-183.93701 960,0 0,720 -960,0 z" />
  <path
     style="fill:#f3f3f3;fill-rule:nonzero"
     inkscape:connector-curvature="0"
     id="path11"
     d="m 0,0 586.8976,0 0,280 L 0,280 Z" />
  <path
     style="fill:#000000;fill-rule:nonzero"
     inkscape:connector-curvature="0"
     id="path15"
     d="m 230.8082,28.32125 2.09375,-0.32813 q 0.17187,1.25 0.96875,1.92188 0.8125,0.67187 2.25,0.67187 1.45312,0 2.15625,-0.59375 0.70312,-0.59375 0.70312,-1.39062 0,-0.71875 -0.625,-1.125 -0.42187,-0.28125 -2.15625,-0.71875 -2.3125,-0.57813 -3.21875,-1 -0.89062,-0.4375 -1.35937,-1.1875 -0.45313,-0.76563 -0.45313,-1.67188 0,-0.82812 0.375,-1.53125 0.39063,-0.71875 1.04688,-1.1875 0.48437,-0.35937 1.32812,-0.60937 0.85938,-0.26563 1.82813,-0.26563 1.46875,0 2.57812,0.42188 1.10938,0.42187 1.625,1.15625 0.53125,0.71875 0.73438,1.92187 l -2.0625,0.28125 q -0.14063,-0.96875 -0.8125,-1.5 -0.67188,-0.54687 -1.90625,-0.54687 -1.45313,0 -2.07813,0.48437 -0.625,0.48438 -0.625,1.125 0,0.40625 0.26563,0.73438 0.25,0.34375 0.8125,0.5625 0.3125,0.125 1.85937,0.54687 2.23438,0.59375 3.10938,0.98438 0.89062,0.375 1.39062,1.10937 0.51563,0.71875 0.51563,1.79688 0,1.04687 -0.625,1.98437 -0.60938,0.9375 -1.76563,1.45313 -1.15625,0.5 -2.625,0.5 -2.42187,0 -3.70312,-1 -1.26563,-1.01563 -1.625,-3 z m 21,3.71875 0,-1.82813 q -1.45313,2.10938 -3.9375,2.10938 -1.10938,0 -2.0625,-0.42188 -0.95313,-0.42187 -1.42188,-1.0625 -0.45312,-0.64062 -0.64062,-1.5625 -0.14063,-0.625 -0.14063,-1.96875 l 0,-7.71875 2.10938,0 0,6.90625 q 0,1.65625 0.14062,2.23438 0.1875,0.82812 0.82813,1.3125 0.65625,0.46875 1.60937,0.46875 0.9375,0 1.76563,-0.48438 0.84375,-0.5 1.1875,-1.32812 0.34375,-0.84375 0.34375,-2.4375 l 0,-6.67188 2.10937,0 0,12.45313 -1.89062,0 z m 5.19141,4.76562 0,-17.21875 1.92187,0 0,1.625 q 0.6875,-0.95312 1.53125,-1.42187 0.85938,-0.48438 2.07813,-0.48438 1.59375,0 2.8125,0.82813 1.21875,0.8125 1.84375,2.3125 0.625,1.5 0.625,3.28125 0,1.90625 -0.6875,3.4375 -0.6875,1.53125 -2,2.34375 -1.29688,0.8125 -2.73438,0.8125 -1.0625,0 -1.90625,-0.4375 -0.82812,-0.45313 -1.375,-1.14063 l 0,6.0625 -2.10937,0 z m 1.92187,-10.92187 q 0,2.40625 0.96875,3.5625 0.96875,1.14062 2.35938,1.14062 1.40625,0 2.40625,-1.1875 1,-1.1875 1,-3.6875 0,-2.375 -0.98438,-3.5625 -0.96875,-1.1875 -2.32812,-1.1875 -1.35938,0 -2.39063,1.26563 -1.03125,1.25 -1.03125,3.65625 z m 19.95703,2.14062 2.17188,0.28125 q -0.51563,1.90625 -1.90625,2.96875 -1.39063,1.04688 -3.5625,1.04688 -2.73438,0 -4.34375,-1.67188 -1.59375,-1.6875 -1.59375,-4.73437 0,-3.14063 1.60937,-4.875 1.625,-1.73438 4.20313,-1.73438 2.5,0 4.07812,1.70313 1.59375,1.70312 1.59375,4.78125 0,0.1875 -0.0156,0.5625 l -9.28125,0 q 0.10937,2.04687 1.15625,3.14062 1.04687,1.09375 2.60937,1.09375 1.15625,0 1.96875,-0.60937 0.82813,-0.60938 1.3125,-1.95313 z m -6.9375,-3.40625 6.95313,0 q -0.14063,-1.5625 -0.79688,-2.35937 -1,-1.21875 -2.60937,-1.21875 -1.45313,0 -2.45313,0.98437 -0.98437,0.96875 -1.09375,2.59375 z m 11.73828,7.42188 0,-12.45313 1.89063,0 0,1.89063 q 0.73437,-1.32813 1.34375,-1.75 0.625,-0.42188 1.35937,-0.42188 1.0625,0 2.17188,0.6875 l -0.73438,1.95313 q -0.76562,-0.45313 -1.54687,-0.45313 -0.6875,0 -1.25,0.42188 -0.54688,0.40625 -0.78125,1.14062 -0.34375,1.125 -0.34375,2.46875 l 0,6.51563 -2.10938,0 z m 7.99219,0 0,-12.45313 1.89063,0 0,1.89063 q 0.73437,-1.32813 1.34375,-1.75 0.625,-0.42188 1.35937,-0.42188 1.0625,0 2.17188,0.6875 l -0.73438,1.95313 q -0.76562,-0.45313 -1.54687,-0.45313 -0.6875,0 -1.25,0.42188 -0.54688,0.40625 -0.78125,1.14062 -0.34375,1.125 -0.34375,2.46875 l 0,6.51563 -2.10938,0 z m 16.53906,-4.01563 2.17188,0.28125 q -0.51563,1.90625 -1.90625,2.96875 -1.39063,1.04688 -3.5625,1.04688 -2.73438,0 -4.34375,-1.67188 -1.59375,-1.6875 -1.59375,-4.73437 0,-3.14063 1.60937,-4.875 1.625,-1.73438 4.20313,-1.73438 2.5,0 4.07812,1.70313 1.59375,1.70312 1.59375,4.78125 0,0.1875 -0.0156,0.5625 l -9.28125,0 q 0.10937,2.04687 1.15625,3.14062 1.04687,1.09375 2.60937,1.09375 1.15625,0 1.96875,-0.60937 0.82813,-0.60938 1.3125,-1.95313 z m -6.9375,-3.40625 6.95313,0 q -0.14063,-1.5625 -0.79688,-2.35937 -1,-1.21875 -2.60937,-1.21875 -1.45313,0 -2.45313,0.98437 -0.98437,0.96875 -1.09375,2.59375 z m 11.37891,8.45313 2.04687,0.3125 q 0.125,0.9375 0.71875,1.375 0.78125,0.59375 2.14063,0.59375 1.46875,0 2.26562,-0.59375 0.79688,-0.57813 1.07813,-1.64063 0.15625,-0.64062 0.14062,-2.70312 -1.375,1.625 -3.4375,1.625 -2.5625,0 -3.96875,-1.84375 -1.40625,-1.85938 -1.40625,-4.45313 0,-1.78125 0.64063,-3.28125 0.64062,-1.51562 1.85937,-2.32812 1.23438,-0.82813 2.89063,-0.82813 2.20312,0 3.625,1.78125 l 0,-1.5 1.95312,0 0,10.76563 q 0,2.90625 -0.59375,4.10937 -0.59375,1.21875 -1.875,1.92188 -1.28125,0.70312 -3.15625,0.70312 -2.23437,0 -3.60937,-1 -1.35938,-1 -1.3125,-3.01562 z m 1.73437,-7.48438 q 0,2.45313 0.96875,3.57813 0.98438,1.125 2.45313,1.125 1.45312,0 2.4375,-1.10938 0.98437,-1.125 0.98437,-3.51562 0,-2.28125 -1.01562,-3.4375 -1.01563,-1.17188 -2.45313,-1.17188 -1.40625,0 -2.39062,1.14063 -0.98438,1.14062 -0.98438,3.39062 z m 12.00391,-8.29687 0,-2.4375 2.10937,0 0,2.4375 -2.10937,0 z m 0,14.75 0,-12.45313 2.10937,0 0,12.45313 -2.10937,0 z m 4.53516,-6.21875 q 0,-3.46875 1.92187,-5.125 1.60938,-1.39063 3.92188,-1.39063 2.5625,0 4.1875,1.6875 1.625,1.6875 1.625,4.64063 0,2.40625 -0.71875,3.78125 -0.71875,1.375 -2.09375,2.14062 -1.375,0.76563 -3,0.76563 -2.625,0 -4.23438,-1.67188 -1.60937,-1.6875 -1.60937,-4.82812 z m 2.17187,0 q 0,2.39062 1.03125,3.57812 1.04688,1.1875 2.64063,1.1875 1.5625,0 2.60937,-1.1875 1.04688,-1.20312 1.04688,-3.65625 0,-2.3125 -1.0625,-3.5 -1.04688,-1.1875 -2.59375,-1.1875 -1.59375,0 -2.64063,1.1875 -1.03125,1.1875 -1.03125,3.57813 z m 11.95703,6.21875 0,-12.45313 1.90625,0 0,1.78125 q 1.375,-2.0625 3.95313,-2.0625 1.125,0 2.0625,0.40625 0.95312,0.40625 1.42187,1.0625 0.46875,0.65625 0.65625,1.5625 0.125,0.57813 0.125,2.04688 l 0,7.65625 -2.10937,0 0,-7.57813 q 0,-1.28125 -0.25,-1.92187 -0.25,-0.64063 -0.875,-1.01563 -0.625,-0.39062 -1.46875,-0.39062 -1.34375,0 -2.32813,0.85937 -0.98437,0.85938 -0.98437,3.25 l 0,6.79688 -2.10938,0 z" />
  <path
     style="fill:#a4c2f4;fill-rule:nonzero"
     inkscape:connector-curvature="0"
     id="path17"
     d="m 8.73753,80.10303 0,0 c 0,-18.49104 14.98994,-33.48099 33.48099,-33.48099 l 188.75456,0 c 8.8797,0 17.39572,3.52745 23.67462,9.80635 6.27893,6.27892 9.80637,14.79492 9.80637,23.67464 l 0,133.91992 c 0,18.49103 -14.98996,33.48099 -33.48099,33.48099 l -188.75456,0 0,0 c -18.49104,0 -33.48099,-14.98996 -33.48099,-33.48099 z" />
  <path
     style="fill-rule:nonzero;stroke:#000000;stroke-width:2;stroke-linecap:butt;stroke-linejoin:round"
     inkscape:connector-curvature="0"
     id="path19"
     d="m 8.73753,80.10303 0,0 c 0,-18.49104 14.98994,-33.48099 33.48099,-33.48099 l 188.75456,0 c 8.8797,0 17.39572,3.52745 23.67462,9.80635 6.27893,6.27892 9.80637,14.79492 9.80637,23.67464 l 0,133.91992 c 0,18.49103 -14.98996,33.48099 -33.48099,33.48099 l -188.75456,0 0,0 c -18.49104,0 -33.48099,-14.98996 -33.48099,-33.48099 z" />
  <path
     style="fill:#000000;fill-rule:nonzero"
     inkscape:connector-curvature="0"
     id="path21"
     d="m 104.12048,83.34829 0,-9.85938 1.5,0 0,1.5 q 0.57812,-1.04687 1.0625,-1.375 0.48437,-0.34375 1.07812,-0.34375 0.84375,0 1.71875,0.54688 l -0.57812,1.54687 q -0.60938,-0.35937 -1.23438,-0.35937 -0.54687,0 -0.98437,0.32812 -0.42188,0.32813 -0.60938,0.90625 -0.28125,0.89063 -0.28125,1.95313 l 0,5.15625 -1.67187,0 z m 12.9783,-3.17188 1.71875,0.21875 q -0.40625,1.5 -1.51562,2.34375 -1.09375,0.82813 -2.8125,0.82813 -2.15625,0 -3.42188,-1.32813 -1.26562,-1.32812 -1.26562,-3.73437 0,-2.48438 1.26562,-3.85938 1.28125,-1.375 3.32813,-1.375 1.98437,0 3.23437,1.34375 1.25,1.34375 1.25,3.79688 0,0.14062 -0.0156,0.4375 l -7.34375,0 q 0.0937,1.625 0.92187,2.48437 0.82813,0.85938 2.0625,0.85938 0.90625,0 1.54688,-0.46875 0.65625,-0.48438 1.04687,-1.54688 z m -5.48437,-2.70312 5.5,0 q -0.10938,-1.23438 -0.625,-1.85938 -0.79688,-0.96875 -2.07813,-0.96875 -1.14062,0 -1.9375,0.78125 -0.78125,0.76563 -0.85937,2.04688 z m 8.81323,6.6875 1.60937,0.25 q 0.10938,0.75 0.57813,1.09375 0.60937,0.45312 1.6875,0.45312 1.17187,0 1.79687,-0.46875 0.625,-0.45312 0.85938,-1.28125 0.125,-0.51562 0.10937,-2.15625 -1.09375,1.29688 -2.71875,1.29688 -2.03125,0 -3.15625,-1.46875 -1.10937,-1.46875 -1.10937,-3.51563 0,-1.40625 0.51562,-2.59375 0.51563,-1.20312 1.48438,-1.84375 0.96875,-0.65625 2.26562,-0.65625 1.75,0 2.875,1.40625 l 0,-1.1875 1.54688,0 0,8.51563 q 0,2.3125 -0.46875,3.26562 -0.46875,0.96875 -1.48438,1.51563 -1.01562,0.5625 -2.5,0.5625 -1.76562,0 -2.85937,-0.79688 -1.07813,-0.79687 -1.03125,-2.39062 z m 1.375,-5.92188 q 0,1.95313 0.76562,2.84375 0.78125,0.89063 1.9375,0.89063 1.14063,0 1.92188,-0.89063 0.78125,-0.89062 0.78125,-2.78125 0,-1.8125 -0.8125,-2.71875 -0.79688,-0.92187 -1.92188,-0.92187 -1.10937,0 -1.89062,0.90625 -0.78125,0.89062 -0.78125,2.67187 z m 9.3132,-6.57814 0,-1.90625 1.67188,0 0,1.90625 -1.67188,0 z m 0,11.68752 0,-9.85938 1.67188,0 0,9.85938 -1.67188,0 z m 3.50421,-4.92188 q 0,-2.73437 1.53125,-4.0625 1.26563,-1.09375 3.09375,-1.09375 2.03125,0 3.3125,1.34375 1.29688,1.32813 1.29688,3.67188 0,1.90625 -0.57813,3 -0.5625,1.07812 -1.65625,1.6875 -1.07812,0.59375 -2.375,0.59375 -2.0625,0 -3.34375,-1.32813 -1.28125,-1.32812 -1.28125,-3.8125 z m 1.71875,0 q 0,1.89063 0.82813,2.82813 0.82812,0.9375 2.07812,0.9375 1.25,0 2.0625,-0.9375 0.82813,-0.95313 0.82813,-2.89063 0,-1.82812 -0.82813,-2.76562 -0.82812,-0.9375 -2.0625,-0.9375 -1.25,0 -2.07812,0.9375 -0.82813,0.9375 -0.82813,2.82812 z m 9.28195,4.92188 0,-9.85938 1.5,0 0,1.40625 q 1.09375,-1.625 3.14063,-1.625 0.89062,0 1.64062,0.32813 0.75,0.3125 1.10938,0.84375 0.375,0.51562 0.53125,1.21875 0.0937,0.46875 0.0937,1.625 l 0,6.0625 -1.67188,0 0,-6 q 0,-1.01563 -0.20312,-1.51563 -0.1875,-0.51562 -0.6875,-0.8125 -0.5,-0.29687 -1.17188,-0.29687 -1.0625,0 -1.84375,0.67187 -0.76562,0.67188 -0.76562,2.57813 l 0,5.375 -1.67188,0 z m 21.38715,0 -1.67187,0 0,-10.64063 q -0.59375,0.57813 -1.57813,1.15625 -0.98437,0.5625 -1.76562,0.85938 l 0,-1.625 q 1.40625,-0.65625 2.45312,-1.59377 1.04688,-0.9375 1.48438,-1.8125 l 1.07812,0 0,13.65627 z" />
  <path
     style="fill:#a4c2f4;fill-rule:nonzero"
     inkscape:connector-curvature="0"
     id="path23"
     d="m 306.38058,80.10303 0,0 c 0,-18.49104 14.98993,-33.48099 33.48096,-33.48099 l 204.81757,0 c 8.8797,0 17.39575,3.52745 23.67462,9.80635 6.27893,6.27892 9.8064,14.79492 9.8064,23.67464 l 0,133.91992 c 0,18.49103 -14.98999,33.48099 -33.48102,33.48099 l -204.81757,0 c -18.49103,0 -33.48096,-14.98996 -33.48096,-33.48099 z" />
  <path
     style="fill-rule:nonzero;stroke:#000000;stroke-width:2;stroke-linecap:butt;stroke-linejoin:round"
     inkscape:connector-curvature="0"
     id="path25"
     d="m 306.38058,80.10303 0,0 c 0,-18.49104 14.98993,-33.48099 33.48096,-33.48099 l 204.81757,0 c 8.8797,0 17.39575,3.52745 23.67462,9.80635 6.27893,6.27892 9.8064,14.79492 9.8064,23.67464 l 0,133.91992 c 0,18.49103 -14.98999,33.48099 -33.48102,33.48099 l -204.81757,0 c -18.49103,0 -33.48096,-14.98996 -33.48096,-33.48099 z" />
  <path
     style="fill:#000000;fill-rule:nonzero"
     inkscape:connector-curvature="0"
     id="path27"
     d="m 409.79502,83.34829 0,-9.85938 1.5,0 0,1.5 q 0.57812,-1.04687 1.0625,-1.375 0.48437,-0.34375 1.07812,-0.34375 0.84375,0 1.71875,0.54688 l -0.57812,1.54687 q -0.60938,-0.35937 -1.23438,-0.35937 -0.54687,0 -0.98437,0.32812 -0.42188,0.32813 -0.60938,0.90625 -0.28125,0.89063 -0.28125,1.95313 l 0,5.15625 -1.67187,0 z m 12.97833,-3.17188 1.71875,0.21875 q -0.40625,1.5 -1.51562,2.34375 -1.09375,0.82813 -2.8125,0.82813 -2.15625,0 -3.42188,-1.32813 -1.26562,-1.32812 -1.26562,-3.73437 0,-2.48438 1.26562,-3.85938 1.28125,-1.375 3.32813,-1.375 1.98437,0 3.23437,1.34375 1.25,1.34375 1.25,3.79688 0,0.14062 -0.0156,0.4375 l -7.34375,0 q 0.0937,1.625 0.92187,2.48437 0.82813,0.85938 2.0625,0.85938 0.90625,0 1.54688,-0.46875 0.65625,-0.48438 1.04687,-1.54688 z m -5.48437,-2.70312 5.5,0 q -0.10938,-1.23438 -0.625,-1.85938 -0.79688,-0.96875 -2.07813,-0.96875 -1.14062,0 -1.9375,0.78125 -0.78125,0.76563 -0.85937,2.04688 z m 8.81317,6.6875 1.60937,0.25 q 0.10938,0.75 0.57813,1.09375 0.60937,0.45312 1.6875,0.45312 1.17187,0 1.79687,-0.46875 0.625,-0.45312 0.85938,-1.28125 0.125,-0.51562 0.10937,-2.15625 -1.09375,1.29688 -2.71875,1.29688 -2.03125,0 -3.15625,-1.46875 -1.10937,-1.46875 -1.10937,-3.51563 0,-1.40625 0.51562,-2.59375 0.51563,-1.20312 1.48438,-1.84375 0.96875,-0.65625 2.26562,-0.65625 1.75,0 2.875,1.40625 l 0,-1.1875 1.54688,0 0,8.51563 q 0,2.3125 -0.46875,3.26562 -0.46875,0.96875 -1.48438,1.51563 -1.01562,0.5625 -2.5,0.5625 -1.76562,0 -2.85937,-0.79688 -1.07813,-0.79687 -1.03125,-2.39062 z m 1.375,-5.92188 q 0,1.95313 0.76562,2.84375 0.78125,0.89063 1.9375,0.89063 1.14063,0 1.92188,-0.89063 0.78125,-0.89062 0.78125,-2.78125 0,-1.8125 -0.8125,-2.71875 -0.79688,-0.92187 -1.92188,-0.92187 -1.10937,0 -1.89062,0.90625 -0.78125,0.89062 -0.78125,2.67187 z m 9.31323,-6.57814 0,-1.90625 1.67188,0 0,1.90625 -1.67188,0 z m 0,11.68752 0,-9.85938 1.67188,0 0,9.85938 -1.67188,0 z m 3.50421,-4.92188 q 0,-2.73437 1.53125,-4.0625 1.26563,-1.09375 3.09375,-1.09375 2.03125,0 3.3125,1.34375 1.29688,1.32813 1.29688,3.67188 0,1.90625 -0.57813,3 -0.5625,1.07812 -1.65625,1.6875 -1.07812,0.59375 -2.375,0.59375 -2.0625,0 -3.34375,-1.32813 -1.28125,-1.32812 -1.28125,-3.8125 z m 1.71875,0 q 0,1.89063 0.82813,2.82813 0.82812,0.9375 2.07812,0.9375 1.25,0 2.0625,-0.9375 0.82813,-0.95313 0.82813,-2.89063 0,-1.82812 -0.82813,-2.76562 -0.82812,-0.9375 -2.0625,-0.9375 -1.25,0 -2.07812,0.9375 -0.82813,0.9375 -0.82813,2.82812 z m 9.28198,4.92188 0,-9.85938 1.5,0 0,1.40625 q 1.09375,-1.625 3.14063,-1.625 0.89062,0 1.64062,0.32813 0.75,0.3125 1.10938,0.84375 0.375,0.51562 0.53125,1.21875 0.0937,0.46875 0.0937,1.625 l 0,6.0625 -1.67188,0 0,-6 q 0,-1.01563 -0.20312,-1.51563 -0.1875,-0.51562 -0.6875,-0.8125 -0.5,-0.29687 -1.17188,-0.29687 -1.0625,0 -1.84375,0.67187 -0.76562,0.67188 -0.76562,2.57813 l 0,5.375 -1.67188,0 z m 23.87152,-1.60938 0,1.60938 -8.98437,0 q -0.0156,-0.60938 0.1875,-1.15625 0.34375,-0.92188 1.09375,-1.8125 0.76562,-0.89063 2.1875,-2.0625 2.21875,-1.8125 3,-2.875 0.78125,-1.0625 0.78125,-2.01563 0,-0.98437 -0.71875,-1.67189 -0.70313,-0.6875 -1.84375,-0.6875 -1.20313,0 -1.9375,0.73438 -0.71875,0.71876 -0.71875,2.00001 l -1.71875,-0.17187 q 0.17187,-1.92189 1.32812,-2.92189 1.15625,-1.01563 3.09375,-1.01563 1.95313,0 3.09375,1.09375 1.14063,1.07813 1.14063,2.68752 0,0.8125 -0.34375,1.60937 -0.32813,0.78125 -1.10938,1.65625 -0.76562,0.85938 -2.5625,2.39063 -1.5,1.26562 -1.9375,1.71875 -0.42187,0.4375 -0.70312,0.89062 l 6.67187,0 z" />
  <path
     style="fill:#f4cccc;fill-rule:nonzero"
     inkscape:connector-curvature="0"
     id="path29"
     d="m 8.73753,139.99999 0,0 c 0,-23.53516 22.83701,-42.61417 51.00787,-42.61417 l 0,0 c 28.17089,0 51.00789,19.07901 51.00789,42.61417 l 0,0 c 0,23.53516 -22.837,42.61417 -51.00789,42.61417 l 0,0 c -28.17086,0 -51.00787,-19.07901 -51.00787,-42.61417 z" />
  <path
     style="fill-rule:nonzero;stroke:#000000;stroke-width:2;stroke-linecap:butt;stroke-linejoin:round"
     inkscape:connector-curvature="0"
     id="path31"
     d="m 8.73753,139.99999 0,0 c 0,-23.53516 22.83701,-42.61417 51.00787,-42.61417 l 0,0 c 28.17089,0 51.00789,19.07901 51.00789,42.61417 l 0,0 c 0,23.53516 -22.837,42.61417 -51.00789,42.61417 l 0,0 c -28.17086,0 -51.00787,-19.07901 -51.00787,-42.61417 z" />
  <path
     style="fill:#000000;fill-rule:nonzero"
     inkscape:connector-curvature="0"
     id="path33"
     d="m 33.53677,131.66724 0,-9.3125 1.14062,0 0,3.34375 q 0.79688,-0.92188 2.01563,-0.92188 0.75,0 1.29687,0.29688 0.5625,0.29687 0.79688,0.8125 0.23437,0.51562 0.23437,1.51562 l 0,4.26563 -1.14062,0 0,-4.26563 q 0,-0.85937 -0.375,-1.25 -0.35938,-0.39062 -1.04688,-0.39062 -0.5,0 -0.95312,0.26562 -0.45313,0.25 -0.64063,0.70313 -0.1875,0.45312 -0.1875,1.25 l 0,3.6875 -1.14062,0 z m 11.8031,-0.82813 q -0.625,0.53125 -1.21875,0.76563 -0.57812,0.21875 -1.25,0.21875 -1.125,0 -1.71875,-0.54688 -0.59375,-0.54687 -0.59375,-1.39062 0,-0.48438 0.21875,-0.89063 0.23438,-0.42187 0.59375,-0.67187 0.375,-0.25 0.82813,-0.375 0.32812,-0.0781 1.01562,-0.17188 1.375,-0.15625 2.03125,-0.39062 0.0156,-0.23438 0.0156,-0.29688 0,-0.70312 -0.32813,-0.98437 -0.4375,-0.39063 -1.29687,-0.39063 -0.8125,0 -1.20313,0.28125 -0.375,0.28125 -0.5625,1 l -1.10937,-0.14062 q 0.14062,-0.71875 0.48437,-1.15625 0.35938,-0.45313 1.01563,-0.6875 0.67187,-0.23438 1.53125,-0.23438 0.875,0 1.40625,0.20313 0.54687,0.20312 0.79687,0.51562 0.25,0.29688 0.35938,0.76563 0.0469,0.29687 0.0469,1.0625 l 0,1.51562 q 0,1.59375 0.0781,2.01563 0.0781,0.42187 0.28125,0.8125 l -1.1875,0 q -0.17188,-0.35938 -0.23438,-0.82813 z m -0.0937,-2.5625 q -0.625,0.26563 -1.85937,0.4375 -0.70313,0.10938 -1,0.23438 -0.29688,0.125 -0.45313,0.375 -0.15625,0.23437 -0.15625,0.53125 0,0.45312 0.34375,0.76562 0.34375,0.29688 1.01563,0.29688 0.65625,0 1.17187,-0.28125 0.51563,-0.29688 0.76563,-0.79688 0.17187,-0.375 0.17187,-1.14062 l 0,-0.42188 z m 4.16248,3.39063 -1.0625,0 0,-9.3125 1.15625,0 0,3.32812 q 0.71875,-0.90625 1.84375,-0.90625 0.625,0 1.17187,0.25 0.5625,0.25 0.92188,0.70313 0.35937,0.45312 0.5625,1.09375 0.20312,0.64062 0.20312,1.375 0,1.73437 -0.85937,2.6875 -0.85938,0.9375 -2.0625,0.9375 -1.1875,0 -1.875,-1 l 0,0.84375 z m -0.0156,-3.42188 q 0,1.21875 0.34375,1.75 0.53125,0.89063 1.45313,0.89063 0.75,0 1.29687,-0.65625 0.54688,-0.65625 0.54688,-1.9375 0,-1.32813 -0.53125,-1.95313 -0.51563,-0.625 -1.26563,-0.625 -0.75,0 -1.29687,0.65625 -0.54688,0.64063 -0.54688,1.875 z m 6.38123,-4.5625 0,-1.32812 1.14062,0 0,1.32812 -1.14062,0 z m 0,7.98438 0,-6.73438 1.14062,0 0,6.73438 -1.14062,0 z m 5.46109,-1.01563 0.15625,1 q -0.48438,0.10938 -0.85938,0.10938 -0.625,0 -0.96875,-0.20313 -0.34375,-0.20312 -0.48437,-0.51562 -0.14063,-0.32813 -0.14063,-1.34375 l 0,-3.89063 -0.82812,0 0,-0.875 0.82812,0 0,-1.67187 1.14063,-0.6875 0,2.35937 1.15625,0 0,0.875 -1.15625,0 0,3.95313 q 0,0.48437 0.0625,0.625 0.0625,0.14062 0.1875,0.21875 0.14062,0.0781 0.39062,0.0781 0.20313,0 0.51563,-0.0312 z m 5.59361,0.1875 q -0.625,0.53125 -1.21875,0.76563 -0.57813,0.21875 -1.25,0.21875 -1.125,0 -1.71875,-0.54688 -0.59375,-0.54687 -0.59375,-1.39062 0,-0.48438 0.21875,-0.89063 0.23437,-0.42187 0.59375,-0.67187 0.375,-0.25 0.82812,-0.375 0.32813,-0.0781 1.01563,-0.17188 1.375,-0.15625 2.03125,-0.39062 0.0156,-0.23438 0.0156,-0.29688 0,-0.70312 -0.32812,-0.98437 -0.4375,-0.39063 -1.29688,-0.39063 -0.8125,0 -1.20312,0.28125 -0.375,0.28125 -0.5625,1 l -1.10938,-0.14062 q 0.14063,-0.71875 0.48438,-1.15625 0.35937,-0.45313 1.01562,-0.6875 0.67188,-0.23438 1.53125,-0.23438 0.875,0 1.40625,0.20313 0.54688,0.20312 0.79688,0.51562 0.25,0.29688 0.35937,0.76563 0.0469,0.29687 0.0469,1.0625 l 0,1.51562 q 0,1.59375 0.0781,2.01563 0.0781,0.42187 0.28125,0.8125 l -1.1875,0 q -0.17187,-0.35938 -0.23437,-0.82813 z m -0.0937,-2.5625 q -0.625,0.26563 -1.85938,0.4375 -0.70312,0.10938 -1,0.23438 -0.29687,0.125 -0.45312,0.375 -0.15625,0.23437 -0.15625,0.53125 0,0.45312 0.34375,0.76562 0.34375,0.29688 1.01562,0.29688 0.65625,0 1.17188,-0.28125 0.51562,-0.29688 0.76562,-0.79688 0.17188,-0.375 0.17188,-1.14062 l 0,-0.42188 z m 5.61559,2.375 0.15625,1 q -0.48438,0.10938 -0.85938,0.10938 -0.625,0 -0.96875,-0.20313 -0.34375,-0.20312 -0.48437,-0.51562 -0.14063,-0.32813 -0.14063,-1.34375 l 0,-3.89063 -0.82811,0 0,-0.875 0.82811,0 0,-1.67187 1.14063,-0.6875 0,2.35937 1.15625,0 0,0.875 -1.15625,0 0,3.95313 q 0,0.48437 0.0625,0.625 0.0625,0.14062 0.1875,0.21875 0.14062,0.0781 0.39062,0.0781 0.20313,0 0.51563,-0.0312 z m 4.03097,1.01563 3.57813,-9.3125 1.3125,0 3.8125,9.3125 -1.40625,0 -1.07813,-2.8125 -3.89062,0 -1.03125,2.8125 -1.29688,0 z m 2.6875,-3.82813 3.15625,0 -0.98437,-2.57812 q -0.4375,-1.17188 -0.65625,-1.92188 -0.17188,0.89063 -0.5,1.78125 l -1.01563,2.71875 z" />
  <path
     style="fill:#f4cccc;fill-rule:nonzero"
     inkscape:connector-curvature="0"
     id="path35"
     d="m 157.55905,142.87139 0,0 c 0,-23.53516 22.83701,-42.6142 51.00787,-42.6142 l 0,0 c 28.17087,0 51.00788,19.07904 51.00788,42.6142 l 0,0 c 0,23.53516 -22.83701,42.61417 -51.00788,42.61417 l 0,0 c -28.17086,0 -51.00787,-19.07901 -51.00787,-42.61417 z" />
  <path
     style="fill-rule:nonzero;stroke:#000000;stroke-width:2;stroke-linecap:butt;stroke-linejoin:round"
     inkscape:connector-curvature="0"
     id="path37"
     d="m 157.55905,142.87139 0,0 c 0,-23.53516 22.83701,-42.6142 51.00787,-42.6142 l 0,0 c 28.17087,0 51.00788,19.07904 51.00788,42.6142 l 0,0 c 0,23.53516 -22.83701,42.61417 -51.00788,42.61417 l 0,0 c -28.17086,0 -51.00787,-19.07901 -51.00787,-42.61417 z" />
  <path
     style="fill:#000000;fill-rule:nonzero"
     inkscape:connector-curvature="0"
     id="path39"
     d="m 182.35832,134.53861 0,-9.3125 1.14062,0 0,3.34375 q 0.79688,-0.92188 2.01563,-0.92188 0.75,0 1.29687,0.29688 0.5625,0.29687 0.79688,0.8125 0.23437,0.51562 0.23437,1.51562 l 0,4.26563 -1.14062,0 0,-4.26563 q 0,-0.85937 -0.375,-1.25 -0.35938,-0.39062 -1.04688,-0.39062 -0.5,0 -0.95312,0.26562 -0.45313,0.25 -0.64063,0.70313 -0.1875,0.45312 -0.1875,1.25 l 0,3.6875 -1.14062,0 z m 11.8031,-0.82813 q -0.625,0.53125 -1.21875,0.76563 -0.57812,0.21875 -1.25,0.21875 -1.125,0 -1.71875,-0.54688 -0.59375,-0.54687 -0.59375,-1.39062 0,-0.48438 0.21875,-0.89063 0.23438,-0.42187 0.59375,-0.67187 0.375,-0.25 0.82813,-0.375 0.32812,-0.0781 1.01562,-0.17188 1.375,-0.15625 2.03125,-0.39062 0.0156,-0.23438 0.0156,-0.29688 0,-0.70312 -0.32813,-0.98437 -0.4375,-0.39063 -1.29687,-0.39063 -0.8125,0 -1.20313,0.28125 -0.375,0.28125 -0.5625,1 l -1.10937,-0.14062 q 0.14062,-0.71875 0.48437,-1.15625 0.35938,-0.45313 1.01563,-0.6875 0.67187,-0.23438 1.53125,-0.23438 0.875,0 1.40625,0.20313 0.54687,0.20312 0.79687,0.51562 0.25,0.29688 0.35938,0.76563 0.0469,0.29687 0.0469,1.0625 l 0,1.51562 q 0,1.59375 0.0781,2.01563 0.0781,0.42187 0.28125,0.8125 l -1.1875,0 q -0.17188,-0.35938 -0.23438,-0.82813 z m -0.0937,-2.5625 q -0.625,0.26563 -1.85937,0.4375 -0.70313,0.10938 -1,0.23438 -0.29688,0.125 -0.45313,0.375 -0.15625,0.23437 -0.15625,0.53125 0,0.45312 0.34375,0.76562 0.34375,0.29688 1.01563,0.29688 0.65625,0 1.17187,-0.28125 0.51563,-0.29688 0.76563,-0.79688 0.17187,-0.375 0.17187,-1.14062 l 0,-0.42188 z m 4.16248,3.39063 -1.0625,0 0,-9.3125 1.15625,0 0,3.32812 q 0.71875,-0.90625 1.84375,-0.90625 0.625,0 1.17187,0.25 0.5625,0.25 0.92188,0.70313 0.35937,0.45312 0.5625,1.09375 0.20312,0.64062 0.20312,1.375 0,1.73437 -0.85937,2.6875 -0.85938,0.9375 -2.0625,0.9375 -1.1875,0 -1.875,-1 l 0,0.84375 z m -0.0156,-3.42188 q 0,1.21875 0.34375,1.75 0.53125,0.89063 1.45313,0.89063 0.75,0 1.29687,-0.65625 0.54688,-0.65625 0.54688,-1.9375 0,-1.32813 -0.53125,-1.95313 -0.51563,-0.625 -1.26563,-0.625 -0.75,0 -1.29687,0.65625 -0.54688,0.64063 -0.54688,1.875 z m 6.38123,-4.5625 0,-1.32812 1.14062,0 0,1.32812 -1.14062,0 z m 0,7.98438 0,-6.73438 1.14062,0 0,6.73438 -1.14062,0 z m 5.46109,-1.01563 0.15625,1 q -0.48438,0.10938 -0.85938,0.10938 -0.625,0 -0.96875,-0.20313 -0.34375,-0.20312 -0.48437,-0.51562 -0.14063,-0.32813 -0.14063,-1.34375 l 0,-3.89063 -0.82812,0 0,-0.875 0.82812,0 0,-1.67187 1.14063,-0.6875 0,2.35937 1.15625,0 0,0.875 -1.15625,0 0,3.95313 q 0,0.48437 0.0625,0.625 0.0625,0.14062 0.1875,0.21875 0.14062,0.0781 0.39062,0.0781 0.20313,0 0.51563,-0.0312 z m 5.59359,0.1875 q -0.625,0.53125 -1.21875,0.76563 -0.57812,0.21875 -1.25,0.21875 -1.125,0 -1.71875,-0.54688 -0.59375,-0.54687 -0.59375,-1.39062 0,-0.48438 0.21875,-0.89063 0.23438,-0.42187 0.59375,-0.67187 0.375,-0.25 0.82813,-0.375 0.32812,-0.0781 1.01562,-0.17188 1.375,-0.15625 2.03125,-0.39062 0.0156,-0.23438 0.0156,-0.29688 0,-0.70312 -0.32813,-0.98437 -0.4375,-0.39063 -1.29687,-0.39063 -0.8125,0 -1.20313,0.28125 -0.375,0.28125 -0.5625,1 l -1.10937,-0.14062 q 0.14062,-0.71875 0.48437,-1.15625 0.35938,-0.45313 1.01563,-0.6875 0.67187,-0.23438 1.53125,-0.23438 0.875,0 1.40625,0.20313 0.54687,0.20312 0.79687,0.51562 0.25,0.29688 0.35938,0.76563 0.0469,0.29687 0.0469,1.0625 l 0,1.51562 q 0,1.59375 0.0781,2.01563 0.0781,0.42187 0.28125,0.8125 l -1.1875,0 q -0.17188,-0.35938 -0.23438,-0.82813 z m -0.0937,-2.5625 q -0.625,0.26563 -1.85937,0.4375 -0.70313,0.10938 -1,0.23438 -0.29688,0.125 -0.45313,0.375 -0.15625,0.23437 -0.15625,0.53125 0,0.45312 0.34375,0.76562 0.34375,0.29688 1.01563,0.29688 0.65625,0 1.17187,-0.28125 0.51563,-0.29688 0.76563,-0.79688 0.17187,-0.375 0.17187,-1.14062 l 0,-0.42188 z m 5.61561,2.375 0.15625,1 q -0.48438,0.10938 -0.85938,0.10938 -0.625,0 -0.96875,-0.20313 -0.34375,-0.20312 -0.48437,-0.51562 -0.14063,-0.32813 -0.14063,-1.34375 l 0,-3.89063 -0.82812,0 0,-0.875 0.82812,0 0,-1.67187 1.14063,-0.6875 0,2.35937 1.15625,0 0,0.875 -1.15625,0 0,3.95313 q 0,0.48437 0.0625,0.625 0.0625,0.14062 0.1875,0.21875 0.14062,0.0781 0.39062,0.0781 0.20313,0 0.51563,-0.0312 z m 4.99972,1.01563 0,-9.3125 3.48438,0 q 1.07812,0 1.71875,0.29687 0.64062,0.28125 1,0.875 0.375,0.57813 0.375,1.21875 0,0.59375 -0.32813,1.125 -0.32812,0.51563 -0.96875,0.84375 0.84375,0.25 1.29688,0.84375 0.45312,0.59375 0.45312,1.40625 0,0.65625 -0.28125,1.21875 -0.28125,0.5625 -0.6875,0.875 -0.40625,0.29688 -1.01562,0.45313 -0.60938,0.15625 -1.5,0.15625 l -3.54688,0 z m 1.23438,-5.39063 2.01562,0 q 0.8125,0 1.17188,-0.10937 0.46875,-0.14063 0.70312,-0.46875 0.23438,-0.32813 0.23438,-0.8125 0,-0.46875 -0.21875,-0.8125 -0.21875,-0.35938 -0.64063,-0.48438 -0.40625,-0.125 -1.40625,-0.125 l -1.85937,0 0,2.8125 z m 0,4.29688 2.3125,0 q 0.59375,0 0.84375,-0.0469 0.42187,-0.0781 0.70312,-0.25 0.28125,-0.1875 0.46875,-0.51562 0.1875,-0.34375 0.1875,-0.79688 0,-0.51562 -0.26562,-0.89062 -0.26563,-0.39063 -0.75,-0.54688 -0.46875,-0.15625 -1.35938,-0.15625 l -2.14062,0 0,3.20313 z" />
  <path
     style="fill:#f4cccc;fill-rule:nonzero"
     inkscape:connector-curvature="0"
     id="path41"
     d="m 78.25198,204.88977 0,0 c 0,-23.53516 24.55734,-42.6142 54.85037,-42.6142 l 0,0 c 30.29306,0 54.8504,19.07904 54.8504,42.6142 l 0,0 c 0,23.53516 -24.55734,42.61417 -54.8504,42.61417 l 0,0 c -30.29303,0 -54.85037,-19.07901 -54.85037,-42.61417 z" />
  <path
     style="fill-rule:nonzero;stroke:#000000;stroke-width:2;stroke-linecap:butt;stroke-linejoin:round"
     inkscape:connector-curvature="0"
     id="path43"
     d="m 78.25198,204.88977 0,0 c 0,-23.53516 24.55734,-42.6142 54.85037,-42.6142 l 0,0 c 30.29306,0 54.8504,19.07904 54.8504,42.6142 l 0,0 c 0,23.53516 -24.55734,42.61417 -54.8504,42.61417 l 0,0 c -30.29303,0 -54.85037,-19.07901 -54.85037,-42.61417 z" />
  <path
     style="fill:#000000;fill-rule:nonzero"
     inkscape:connector-curvature="0"
     id="path45"
     d="m 104.17666,196.55699 0,-9.3125 1.14063,0 0,3.34375 q 0.79687,-0.92187 2.01562,-0.92187 0.75,0 1.29688,0.29687 0.5625,0.29688 0.79687,0.8125 0.23438,0.51563 0.23438,1.51563 l 0,4.26562 -1.14063,0 0,-4.26562 q 0,-0.85938 -0.375,-1.25 -0.35937,-0.39063 -1.04687,-0.39063 -0.5,0 -0.95313,0.26563 -0.45312,0.25 -0.64062,0.70312 -0.1875,0.45313 -0.1875,1.25 l 0,3.6875 -1.14063,0 z m 11.8031,-0.82812 q -0.625,0.53125 -1.21875,0.76562 -0.57812,0.21875 -1.25,0.21875 -1.125,0 -1.71875,-0.54687 -0.59375,-0.54688 -0.59375,-1.39063 0,-0.48437 0.21875,-0.89062 0.23438,-0.42188 0.59375,-0.67188 0.375,-0.25 0.82813,-0.375 0.32812,-0.0781 1.01562,-0.17187 1.375,-0.15625 2.03125,-0.39063 0.0156,-0.23437 0.0156,-0.29687 0,-0.70313 -0.32813,-0.98438 -0.4375,-0.39062 -1.29687,-0.39062 -0.8125,0 -1.20313,0.28125 -0.375,0.28125 -0.5625,1 l -1.10937,-0.14063 q 0.14062,-0.71875 0.48437,-1.15625 0.35938,-0.45312 1.01563,-0.6875 0.67187,-0.23437 1.53125,-0.23437 0.875,0 1.40625,0.20312 0.54687,0.20313 0.79687,0.51563 0.25,0.29687 0.35938,0.76562 0.0469,0.29688 0.0469,1.0625 l 0,1.51563 q 0,1.59375 0.0781,2.01562 0.0781,0.42188 0.28125,0.8125 l -1.1875,0 q -0.17188,-0.35937 -0.23438,-0.82812 z m -0.0937,-2.5625 q -0.625,0.26562 -1.85937,0.4375 -0.70313,0.10937 -1,0.23437 -0.29688,0.125 -0.45313,0.375 -0.15625,0.23438 -0.15625,0.53125 0,0.45313 0.34375,0.76563 0.34375,0.29687 1.01563,0.29687 0.65625,0 1.17187,-0.28125 0.51563,-0.29687 0.76563,-0.79687 0.17187,-0.375 0.17187,-1.14063 l 0,-0.42187 z m 4.16248,3.39062 -1.0625,0 0,-9.3125 1.15625,0 0,3.32813 q 0.71875,-0.90625 1.84375,-0.90625 0.625,0 1.17187,0.25 0.5625,0.25 0.92188,0.70312 0.35937,0.45313 0.5625,1.09375 0.20312,0.64063 0.20312,1.375 0,1.73438 -0.85937,2.6875 -0.85938,0.9375 -2.0625,0.9375 -1.1875,0 -1.875,-1 l 0,0.84375 z m -0.0156,-3.42187 q 0,1.21875 0.34375,1.75 0.53125,0.89062 1.45313,0.89062 0.75,0 1.29687,-0.65625 0.54688,-0.65625 0.54688,-1.9375 0,-1.32812 -0.53125,-1.95312 -0.51563,-0.625 -1.26563,-0.625 -0.75,0 -1.29687,0.65625 -0.54688,0.64062 -0.54688,1.875 z m 6.38123,-4.5625 0,-1.32813 1.14062,0 0,1.32813 -1.14062,0 z m 0,7.98437 0,-6.73437 1.14062,0 0,6.73437 -1.14062,0 z m 5.46109,-1.01562 0.15625,1 q -0.48438,0.10937 -0.85938,0.10937 -0.625,0 -0.96875,-0.20312 -0.34375,-0.20313 -0.48437,-0.51563 -0.14063,-0.32812 -0.14063,-1.34375 l 0,-3.89062 -0.82812,0 0,-0.875 0.82812,0 0,-1.67188 1.14063,-0.6875 0,2.35938 1.15625,0 0,0.875 -1.15625,0 0,3.95312 q 0,0.48438 0.0625,0.625 0.0625,0.14063 0.1875,0.21875 0.14062,0.0781 0.39062,0.0781 0.20313,0 0.51563,-0.0312 z m 5.59359,0.1875 q -0.625,0.53125 -1.21875,0.76562 -0.57812,0.21875 -1.25,0.21875 -1.125,0 -1.71875,-0.54687 -0.59375,-0.54688 -0.59375,-1.39063 0,-0.48437 0.21875,-0.89062 0.23438,-0.42188 0.59375,-0.67188 0.375,-0.25 0.82813,-0.375 0.32812,-0.0781 1.01562,-0.17187 1.375,-0.15625 2.03125,-0.39063 0.0156,-0.23437 0.0156,-0.29687 0,-0.70313 -0.32813,-0.98438 -0.4375,-0.39062 -1.29687,-0.39062 -0.8125,0 -1.20313,0.28125 -0.375,0.28125 -0.5625,1 l -1.10937,-0.14063 q 0.14062,-0.71875 0.48437,-1.15625 0.35938,-0.45312 1.01563,-0.6875 0.67187,-0.23437 1.53125,-0.23437 0.875,0 1.40625,0.20312 0.54687,0.20313 0.79687,0.51563 0.25,0.29687 0.35938,0.76562 0.0469,0.29688 0.0469,1.0625 l 0,1.51563 q 0,1.59375 0.0781,2.01562 0.0781,0.42188 0.28125,0.8125 l -1.1875,0 q -0.17188,-0.35937 -0.23438,-0.82812 z m -0.0937,-2.5625 q -0.625,0.26562 -1.85937,0.4375 -0.70313,0.10937 -1,0.23437 -0.29688,0.125 -0.45313,0.375 -0.15625,0.23438 -0.15625,0.53125 0,0.45313 0.34375,0.76563 0.34375,0.29687 1.01563,0.29687 0.65625,0 1.17187,-0.28125 0.51563,-0.29687 0.76563,-0.79687 0.17187,-0.375 0.17187,-1.14063 l 0,-0.42187 z m 5.61561,2.375 0.15625,1 q -0.48438,0.10937 -0.85938,0.10937 -0.625,0 -0.96875,-0.20312 -0.34375,-0.20313 -0.48437,-0.51563 -0.14063,-0.32812 -0.14063,-1.34375 l 0,-3.89062 -0.82812,0 0,-0.875 0.82812,0 0,-1.67188 1.14063,-0.6875 0,2.35938 1.15625,0 0,0.875 -1.15625,0 0,3.95312 q 0,0.48438 0.0625,0.625 0.0625,0.14063 0.1875,0.21875 0.14062,0.0781 0.39062,0.0781 0.20313,0 0.51563,-0.0312 z m 11.68722,-2.25 1.23438,0.3125 q -0.39063,1.51562 -1.40625,2.3125 -1,0.79687 -2.45313,0.79687 -1.5,0 -2.45312,-0.60937 -0.9375,-0.60938 -1.4375,-1.76563 -0.48438,-1.17187 -0.48438,-2.5 0,-1.45312 0.5625,-2.53125 0.5625,-1.09375 1.57813,-1.65625 1.03125,-0.5625 2.26562,-0.5625 1.39063,0 2.34375,0.71875 0.95313,0.70313 1.32813,2 l -1.21875,0.28125 q -0.32813,-1.01562 -0.9375,-1.46875 -0.60938,-0.46875 -1.54688,-0.46875 -1.07812,0 -1.79687,0.51563 -0.71875,0.51562 -1.01563,1.375 -0.28125,0.85937 -0.28125,1.78125 0,1.1875 0.34375,2.07812 0.34375,0.89063 1.0625,1.32813 0.73438,0.4375 1.59375,0.4375 1.03125,0 1.75,-0.59375 0.71875,-0.60938 0.96875,-1.78125 z" />
  <path
     style="fill:#f4cccc;fill-rule:nonzero"
     inkscape:connector-curvature="0"
     id="path47"
     d="m 316.85306,139.99999 0,0 c 0,-23.53516 23.54205,-42.61417 52.5827,-42.61417 l 0,0 c 29.04059,0 52.58264,19.07901 52.58264,42.61417 l 0,0 c 0,23.53516 -23.54205,42.61417 -52.58264,42.61417 l 0,0 c -29.04065,0 -52.5827,-19.07901 -52.5827,-42.61417 z" />
  <path
     style="fill-rule:nonzero;stroke:#000000;stroke-width:2;stroke-linecap:butt;stroke-linejoin:round"
     inkscape:connector-curvature="0"
     id="path49"
     d="m 316.85306,139.99999 0,0 c 0,-23.53516 23.54205,-42.61417 52.5827,-42.61417 l 0,0 c 29.04059,0 52.58264,19.07901 52.58264,42.61417 l 0,0 c 0,23.53516 -23.54205,42.61417 -52.58264,42.61417 l 0,0 c -29.04065,0 -52.5827,-19.07901 -52.5827,-42.61417 z" />
  <path
     style="fill:#000000;fill-rule:nonzero"
     inkscape:connector-curvature="0"
     id="path51"
     d="m 342.11355,131.66724 0,-9.3125 1.14062,0 0,3.34375 q 0.79688,-0.92188 2.01563,-0.92188 0.75,0 1.29687,0.29688 0.5625,0.29687 0.79688,0.8125 0.23437,0.51562 0.23437,1.51562 l 0,4.26563 -1.14062,0 0,-4.26563 q 0,-0.85937 -0.375,-1.25 -0.35938,-0.39062 -1.04688,-0.39062 -0.5,0 -0.95312,0.26562 -0.45313,0.25 -0.64063,0.70313 -0.1875,0.45312 -0.1875,1.25 l 0,3.6875 -1.14062,0 z m 11.8031,-0.82813 q -0.625,0.53125 -1.21875,0.76563 -0.57812,0.21875 -1.25,0.21875 -1.125,0 -1.71875,-0.54688 -0.59375,-0.54687 -0.59375,-1.39062 0,-0.48438 0.21875,-0.89063 0.23438,-0.42187 0.59375,-0.67187 0.375,-0.25 0.82813,-0.375 0.32812,-0.0781 1.01562,-0.17188 1.375,-0.15625 2.03125,-0.39062 0.0156,-0.23438 0.0156,-0.29688 0,-0.70312 -0.32813,-0.98437 -0.4375,-0.39063 -1.29687,-0.39063 -0.8125,0 -1.20313,0.28125 -0.375,0.28125 -0.5625,1 l -1.10937,-0.14062 q 0.14062,-0.71875 0.48437,-1.15625 0.35938,-0.45313 1.01563,-0.6875 0.67187,-0.23438 1.53125,-0.23438 0.875,0 1.40625,0.20313 0.54687,0.20312 0.79687,0.51562 0.25,0.29688 0.35938,0.76563 0.0469,0.29687 0.0469,1.0625 l 0,1.51562 q 0,1.59375 0.0781,2.01563 0.0781,0.42187 0.28125,0.8125 l -1.1875,0 q -0.17188,-0.35938 -0.23438,-0.82813 z m -0.0937,-2.5625 q -0.625,0.26563 -1.85937,0.4375 -0.70313,0.10938 -1,0.23438 -0.29688,0.125 -0.45313,0.375 -0.15625,0.23437 -0.15625,0.53125 0,0.45312 0.34375,0.76562 0.34375,0.29688 1.01563,0.29688 0.65625,0 1.17187,-0.28125 0.51563,-0.29688 0.76563,-0.79688 0.17187,-0.375 0.17187,-1.14062 l 0,-0.42188 z m 4.16248,3.39063 -1.0625,0 0,-9.3125 1.15625,0 0,3.32812 q 0.71875,-0.90625 1.84375,-0.90625 0.625,0 1.17187,0.25 0.5625,0.25 0.92188,0.70313 0.35937,0.45312 0.5625,1.09375 0.20312,0.64062 0.20312,1.375 0,1.73437 -0.85937,2.6875 -0.85938,0.9375 -2.0625,0.9375 -1.1875,0 -1.875,-1 l 0,0.84375 z m -0.0156,-3.42188 q 0,1.21875 0.34375,1.75 0.53125,0.89063 1.45313,0.89063 0.75,0 1.29687,-0.65625 0.54688,-0.65625 0.54688,-1.9375 0,-1.32813 -0.53125,-1.95313 -0.51563,-0.625 -1.26563,-0.625 -0.75,0 -1.29687,0.65625 -0.54688,0.64063 -0.54688,1.875 z m 6.38123,-4.5625 0,-1.32812 1.14062,0 0,1.32812 -1.14062,0 z m 0,7.98438 0,-6.73438 1.14062,0 0,6.73438 -1.14062,0 z m 5.46106,-1.01563 0.15625,1 q -0.48438,0.10938 -0.85938,0.10938 -0.625,0 -0.96875,-0.20313 -0.34375,-0.20312 -0.48437,-0.51562 -0.14063,-0.32813 -0.14063,-1.34375 l 0,-3.89063 -0.82812,0 0,-0.875 0.82812,0 0,-1.67187 1.14063,-0.6875 0,2.35937 1.15625,0 0,0.875 -1.15625,0 0,3.95313 q 0,0.48437 0.0625,0.625 0.0625,0.14062 0.1875,0.21875 0.14062,0.0781 0.39062,0.0781 0.20313,0 0.51563,-0.0312 z m 5.59362,0.1875 q -0.625,0.53125 -1.21875,0.76563 -0.57812,0.21875 -1.25,0.21875 -1.125,0 -1.71875,-0.54688 -0.59375,-0.54687 -0.59375,-1.39062 0,-0.48438 0.21875,-0.89063 0.23438,-0.42187 0.59375,-0.67187 0.375,-0.25 0.82813,-0.375 0.32812,-0.0781 1.01562,-0.17188 1.375,-0.15625 2.03125,-0.39062 0.0156,-0.23438 0.0156,-0.29688 0,-0.70312 -0.32813,-0.98437 -0.4375,-0.39063 -1.29687,-0.39063 -0.8125,0 -1.20313,0.28125 -0.375,0.28125 -0.5625,1 l -1.10937,-0.14062 q 0.14062,-0.71875 0.48437,-1.15625 0.35938,-0.45313 1.01563,-0.6875 0.67187,-0.23438 1.53125,-0.23438 0.875,0 1.40625,0.20313 0.54687,0.20312 0.79687,0.51562 0.25,0.29688 0.35938,0.76563 0.0469,0.29687 0.0469,1.0625 l 0,1.51562 q 0,1.59375 0.0781,2.01563 0.0781,0.42187 0.28125,0.8125 l -1.1875,0 q -0.17188,-0.35938 -0.23438,-0.82813 z m -0.0937,-2.5625 q -0.625,0.26563 -1.85937,0.4375 -0.70313,0.10938 -1,0.23438 -0.29688,0.125 -0.45313,0.375 -0.15625,0.23437 -0.15625,0.53125 0,0.45312 0.34375,0.76562 0.34375,0.29688 1.01563,0.29688 0.65625,0 1.17187,-0.28125 0.51563,-0.29688 0.76563,-0.79688 0.17187,-0.375 0.17187,-1.14062 l 0,-0.42188 z m 5.61561,2.375 0.15625,1 q -0.48438,0.10938 -0.85938,0.10938 -0.625,0 -0.96875,-0.20313 -0.34375,-0.20312 -0.48437,-0.51562 -0.14063,-0.32813 -0.14063,-1.34375 l 0,-3.89063 -0.82812,0 0,-0.875 0.82812,0 0,-1.67187 1.14063,-0.6875 0,2.35937 1.15625,0 0,0.875 -1.15625,0 0,3.95313 q 0,0.48437 0.0625,0.625 0.0625,0.14062 0.1875,0.21875 0.14062,0.0781 0.39062,0.0781 0.20313,0 0.51563,-0.0312 z m 5.04663,1.01563 0,-9.3125 3.20312,0 q 1.09375,0 1.65625,0.14062 0.8125,0.1875 1.375,0.67188 0.73438,0.60937 1.09375,1.57812 0.375,0.96875 0.375,2.21875 0,1.0625 -0.25,1.89063 -0.25,0.8125 -0.64062,1.34375 -0.39063,0.53125 -0.85938,0.84375 -0.45312,0.3125 -1.10937,0.46875 -0.64063,0.15625 -1.48438,0.15625 l -3.35937,0 z m 1.23437,-1.09375 1.98438,0 q 0.92187,0 1.4375,-0.17188 0.53125,-0.17187 0.84375,-0.48437 0.4375,-0.4375 0.67187,-1.17188 0.25,-0.75 0.25,-1.79687 0,-1.46875 -0.48437,-2.25 -0.46875,-0.78125 -1.15625,-1.04688 -0.5,-0.1875 -1.59375,-0.1875 l -1.95313,0 0,7.10938 z" />
  <path
     style="fill:#f4cccc;fill-rule:nonzero"
     inkscape:connector-curvature="0"
     id="path53"
     d="m 465.67322,142.87009 0,0 c 0,-23.53516 22.83697,-42.6142 51.00787,-42.6142 l 0,0 c 28.17084,0 51.00788,19.07904 51.00788,42.6142 l 0,0 c 0,23.53516 -22.83704,42.61417 -51.00788,42.61417 l 0,0 c -28.17089,0 -51.00787,-19.07901 -51.00787,-42.61417 z" />
  <path
     style="fill-rule:nonzero;stroke:#000000;stroke-width:2;stroke-linecap:butt;stroke-linejoin:round"
     inkscape:connector-curvature="0"
     id="path55"
     d="m 465.67322,142.87009 0,0 c 0,-23.53516 22.83697,-42.6142 51.00787,-42.6142 l 0,0 c 28.17084,0 51.00788,19.07904 51.00788,42.6142 l 0,0 c 0,23.53516 -22.83704,42.61417 -51.00788,42.61417 l 0,0 c -28.17089,0 -51.00787,-19.07901 -51.00787,-42.61417 z" />
  <path
     style="fill:#000000;fill-rule:nonzero"
     inkscape:connector-curvature="0"
     id="path57"
     d="m 490.47242,134.53729 0,-9.3125 1.14062,0 0,3.34375 q 0.79688,-0.92187 2.01563,-0.92187 0.75,0 1.29687,0.29687 0.5625,0.29688 0.79688,0.8125 0.23437,0.51563 0.23437,1.51563 l 0,4.26562 -1.14062,0 0,-4.26562 q 0,-0.85938 -0.375,-1.25 -0.35938,-0.39063 -1.04688,-0.39063 -0.5,0 -0.95312,0.26563 -0.45313,0.25 -0.64063,0.70312 -0.1875,0.45313 -0.1875,1.25 l 0,3.6875 -1.14062,0 z m 11.8031,-0.82812 q -0.625,0.53125 -1.21875,0.76562 -0.57812,0.21875 -1.25,0.21875 -1.125,0 -1.71875,-0.54687 -0.59375,-0.54688 -0.59375,-1.39063 0,-0.48437 0.21875,-0.89062 0.23438,-0.42188 0.59375,-0.67188 0.375,-0.25 0.82813,-0.375 0.32812,-0.0781 1.01562,-0.17187 1.375,-0.15625 2.03125,-0.39063 0.0156,-0.23437 0.0156,-0.29687 0,-0.70313 -0.32813,-0.98438 -0.4375,-0.39062 -1.29687,-0.39062 -0.8125,0 -1.20313,0.28125 -0.375,0.28125 -0.5625,1 l -1.10937,-0.14063 q 0.14062,-0.71875 0.48437,-1.15625 0.35938,-0.45312 1.01563,-0.6875 0.67187,-0.23437 1.53125,-0.23437 0.875,0 1.40625,0.20312 0.54687,0.20313 0.79687,0.51563 0.25,0.29687 0.35938,0.76562 0.0469,0.29688 0.0469,1.0625 l 0,1.51563 q 0,1.59375 0.0781,2.01562 0.0781,0.42188 0.28125,0.8125 l -1.1875,0 q -0.17188,-0.35937 -0.23438,-0.82812 z m -0.0937,-2.5625 q -0.625,0.26562 -1.85937,0.4375 -0.70313,0.10937 -1,0.23437 -0.29688,0.125 -0.45313,0.375 -0.15625,0.23438 -0.15625,0.53125 0,0.45313 0.34375,0.76563 0.34375,0.29687 1.01563,0.29687 0.65625,0 1.17187,-0.28125 0.51563,-0.29687 0.76563,-0.79687 0.17187,-0.375 0.17187,-1.14063 l 0,-0.42187 z m 4.16248,3.39062 -1.0625,0 0,-9.3125 1.15625,0 0,3.32813 q 0.71875,-0.90625 1.84375,-0.90625 0.625,0 1.17187,0.25 0.5625,0.25 0.92188,0.70312 0.35937,0.45313 0.5625,1.09375 0.20312,0.64063 0.20312,1.375 0,1.73438 -0.85937,2.6875 -0.85938,0.9375 -2.0625,0.9375 -1.1875,0 -1.875,-1 l 0,0.84375 z m -0.0156,-3.42187 q 0,1.21875 0.34375,1.75 0.53125,0.89062 1.45313,0.89062 0.75,0 1.29687,-0.65625 0.54688,-0.65625 0.54688,-1.9375 0,-1.32812 -0.53125,-1.95312 -0.51563,-0.625 -1.26563,-0.625 -0.75,0 -1.29687,0.65625 -0.54688,0.64062 -0.54688,1.875 z m 6.38123,-4.5625 0,-1.32813 1.14062,0 0,1.32813 -1.14062,0 z m 0,7.98437 0,-6.73437 1.14062,0 0,6.73437 -1.14062,0 z m 5.46112,-1.01562 0.15625,1 q -0.48438,0.10937 -0.85938,0.10937 -0.625,0 -0.96875,-0.20312 -0.34375,-0.20313 -0.48437,-0.51563 -0.14063,-0.32812 -0.14063,-1.34375 l 0,-3.89062 -0.82812,0 0,-0.875 0.82812,0 0,-1.67188 1.14063,-0.6875 0,2.35938 1.15625,0 0,0.875 -1.15625,0 0,3.95312 q 0,0.48438 0.0625,0.625 0.0625,0.14063 0.1875,0.21875 0.14062,0.0781 0.39062,0.0781 0.20313,0 0.51563,-0.0312 z m 5.59363,0.1875 q -0.625,0.53125 -1.21875,0.76562 -0.57813,0.21875 -1.25,0.21875 -1.125,0 -1.71875,-0.54687 -0.59375,-0.54688 -0.59375,-1.39063 0,-0.48437 0.21875,-0.89062 0.23437,-0.42188 0.59375,-0.67188 0.375,-0.25 0.82812,-0.375 0.32813,-0.0781 1.01563,-0.17187 1.375,-0.15625 2.03125,-0.39063 0.0156,-0.23437 0.0156,-0.29687 0,-0.70313 -0.32812,-0.98438 -0.4375,-0.39062 -1.29688,-0.39062 -0.8125,0 -1.20312,0.28125 -0.375,0.28125 -0.5625,1 l -1.10938,-0.14063 q 0.14063,-0.71875 0.48438,-1.15625 0.35937,-0.45312 1.01562,-0.6875 0.67188,-0.23437 1.53125,-0.23437 0.875,0 1.40625,0.20312 0.54688,0.20313 0.79688,0.51563 0.25,0.29687 0.35937,0.76562 0.0469,0.29688 0.0469,1.0625 l 0,1.51563 q 0,1.59375 0.0781,2.01562 0.0781,0.42188 0.28125,0.8125 l -1.1875,0 q -0.17187,-0.35937 -0.23437,-0.82812 z m -0.0937,-2.5625 q -0.625,0.26562 -1.85938,0.4375 -0.70312,0.10937 -1,0.23437 -0.29687,0.125 -0.45312,0.375 -0.15625,0.23438 -0.15625,0.53125 0,0.45313 0.34375,0.76563 0.34375,0.29687 1.01562,0.29687 0.65625,0 1.17188,-0.28125 0.51562,-0.29687 0.76562,-0.79687 0.17188,-0.375 0.17188,-1.14063 l 0,-0.42187 z m 5.6156,2.375 0.15625,1 q -0.48438,0.10937 -0.85938,0.10937 -0.625,0 -0.96875,-0.20312 -0.34375,-0.20313 -0.48437,-0.51563 -0.14063,-0.32812 -0.14063,-1.34375 l 0,-3.89062 -0.82812,0 0,-0.875 0.82812,0 0,-1.67188 1.14063,-0.6875 0,2.35938 1.15625,0 0,0.875 -1.15625,0 0,3.95312 q 0,0.48438 0.0625,0.625 0.0625,0.14063 0.1875,0.21875 0.14062,0.0781 0.39062,0.0781 0.20313,0 0.51563,-0.0312 z m 5.07782,1.01562 0,-9.3125 6.71875,0 0,1.10938 -5.48438,0 0,2.84375 5.14063,0 0,1.09375 -5.14063,0 0,3.17187 5.70313,0 0,1.09375 -6.9375,0 z" />
  <path
     style="fill:#f4cccc;fill-rule:nonzero"
     inkscape:connector-curvature="0"
     id="path59"
     d="m 386.36612,204.88846 0,0 c 0,-23.53516 24.55737,-42.6142 54.8504,-42.6142 l 0,0 c 30.29303,0 54.85041,19.07904 54.85041,42.6142 l 0,0 c 0,23.53516 -24.55738,42.61417 -54.85041,42.61417 l 0,0 c -30.29303,0 -54.8504,-19.07901 -54.8504,-42.61417 z" />
  <path
     style="fill-rule:nonzero;stroke:#000000;stroke-width:2;stroke-linecap:butt;stroke-linejoin:round"
     inkscape:connector-curvature="0"
     id="path61"
     d="m 386.36612,204.88846 0,0 c 0,-23.53516 24.55737,-42.6142 54.8504,-42.6142 l 0,0 c 30.29303,0 54.85041,19.07904 54.85041,42.6142 l 0,0 c 0,23.53516 -24.55738,42.61417 -54.85041,42.61417 l 0,0 c -30.29303,0 -54.8504,-19.07901 -54.8504,-42.61417 z" />
  <path
     style="fill:#000000;fill-rule:nonzero"
     inkscape:connector-curvature="0"
     id="path63"
     d="m 412.29082,196.55567 0,-9.3125 1.14062,0 0,3.34375 q 0.79688,-0.92188 2.01563,-0.92188 0.75,0 1.29687,0.29688 0.5625,0.29687 0.79688,0.8125 0.23437,0.51562 0.23437,1.51562 l 0,4.26563 -1.14062,0 0,-4.26563 q 0,-0.85937 -0.375,-1.25 -0.35938,-0.39062 -1.04688,-0.39062 -0.5,0 -0.95312,0.26562 -0.45313,0.25 -0.64063,0.70313 -0.1875,0.45312 -0.1875,1.25 l 0,3.6875 -1.14062,0 z m 11.8031,-0.82813 q -0.625,0.53125 -1.21875,0.76563 -0.57812,0.21875 -1.25,0.21875 -1.125,0 -1.71875,-0.54688 -0.59375,-0.54687 -0.59375,-1.39062 0,-0.48438 0.21875,-0.89063 0.23438,-0.42187 0.59375,-0.67187 0.375,-0.25 0.82813,-0.375 0.32812,-0.0781 1.01562,-0.17188 1.375,-0.15625 2.03125,-0.39062 0.0156,-0.23438 0.0156,-0.29688 0,-0.70312 -0.32813,-0.98437 -0.4375,-0.39063 -1.29687,-0.39063 -0.8125,0 -1.20313,0.28125 -0.375,0.28125 -0.5625,1 l -1.10937,-0.14062 q 0.14062,-0.71875 0.48437,-1.15625 0.35938,-0.45313 1.01563,-0.6875 0.67187,-0.23438 1.53125,-0.23438 0.875,0 1.40625,0.20313 0.54687,0.20312 0.79687,0.51562 0.25,0.29688 0.35938,0.76563 0.0469,0.29687 0.0469,1.0625 l 0,1.51562 q 0,1.59375 0.0781,2.01563 0.0781,0.42187 0.28125,0.8125 l -1.1875,0 q -0.17188,-0.35938 -0.23438,-0.82813 z m -0.0937,-2.5625 q -0.625,0.26563 -1.85937,0.4375 -0.70313,0.10938 -1,0.23438 -0.29688,0.125 -0.45313,0.375 -0.15625,0.23437 -0.15625,0.53125 0,0.45312 0.34375,0.76562 0.34375,0.29688 1.01563,0.29688 0.65625,0 1.17187,-0.28125 0.51563,-0.29688 0.76563,-0.79688 0.17187,-0.375 0.17187,-1.14062 l 0,-0.42188 z m 4.16248,3.39063 -1.0625,0 0,-9.3125 1.15625,0 0,3.32812 q 0.71875,-0.90625 1.84375,-0.90625 0.625,0 1.17187,0.25 0.5625,0.25 0.92188,0.70313 0.35937,0.45312 0.5625,1.09375 0.20312,0.64062 0.20312,1.375 0,1.73437 -0.85937,2.6875 -0.85938,0.9375 -2.0625,0.9375 -1.1875,0 -1.875,-1 l 0,0.84375 z m -0.0156,-3.42188 q 0,1.21875 0.34375,1.75 0.53125,0.89063 1.45313,0.89063 0.75,0 1.29687,-0.65625 0.54688,-0.65625 0.54688,-1.9375 0,-1.32813 -0.53125,-1.95313 -0.51563,-0.625 -1.26563,-0.625 -0.75,0 -1.29687,0.65625 -0.54688,0.64063 -0.54688,1.875 z m 6.38123,-4.5625 0,-1.32812 1.14062,0 0,1.32812 -1.14062,0 z m 0,7.98438 0,-6.73438 1.14062,0 0,6.73438 -1.14062,0 z m 5.46112,-1.01563 0.15625,1 q -0.48438,0.10938 -0.85938,0.10938 -0.625,0 -0.96875,-0.20313 -0.34375,-0.20312 -0.48437,-0.51562 -0.14063,-0.32813 -0.14063,-1.34375 l 0,-3.89063 -0.82812,0 0,-0.875 0.82812,0 0,-1.67187 1.14063,-0.6875 0,2.35937 1.15625,0 0,0.875 -1.15625,0 0,3.95313 q 0,0.48437 0.0625,0.625 0.0625,0.14062 0.1875,0.21875 0.14062,0.0781 0.39062,0.0781 0.20313,0 0.51563,-0.0312 z m 5.59363,0.1875 q -0.625,0.53125 -1.21875,0.76563 -0.57813,0.21875 -1.25,0.21875 -1.125,0 -1.71875,-0.54688 -0.59375,-0.54687 -0.59375,-1.39062 0,-0.48438 0.21875,-0.89063 0.23437,-0.42187 0.59375,-0.67187 0.375,-0.25 0.82812,-0.375 0.32813,-0.0781 1.01563,-0.17188 1.375,-0.15625 2.03125,-0.39062 0.0156,-0.23438 0.0156,-0.29688 0,-0.70312 -0.32812,-0.98437 -0.4375,-0.39063 -1.29688,-0.39063 -0.8125,0 -1.20312,0.28125 -0.375,0.28125 -0.5625,1 l -1.10938,-0.14062 q 0.14063,-0.71875 0.48438,-1.15625 0.35937,-0.45313 1.01562,-0.6875 0.67188,-0.23438 1.53125,-0.23438 0.875,0 1.40625,0.20313 0.54688,0.20312 0.79688,0.51562 0.25,0.29688 0.35937,0.76563 0.0469,0.29687 0.0469,1.0625 l 0,1.51562 q 0,1.59375 0.0781,2.01563 0.0781,0.42187 0.28125,0.8125 l -1.1875,0 q -0.17187,-0.35938 -0.23437,-0.82813 z m -0.0937,-2.5625 q -0.625,0.26563 -1.85938,0.4375 -0.70312,0.10938 -1,0.23438 -0.29687,0.125 -0.45312,0.375 -0.15625,0.23437 -0.15625,0.53125 0,0.45312 0.34375,0.76562 0.34375,0.29688 1.01562,0.29688 0.65625,0 1.17188,-0.28125 0.51562,-0.29688 0.76562,-0.79688 0.17188,-0.375 0.17188,-1.14062 l 0,-0.42188 z m 5.6156,2.375 0.15625,1 q -0.48438,0.10938 -0.85938,0.10938 -0.625,0 -0.96875,-0.20313 -0.34375,-0.20312 -0.48437,-0.51562 -0.14063,-0.32813 -0.14063,-1.34375 l 0,-3.89063 -0.82812,0 0,-0.875 0.82812,0 0,-1.67187 1.14063,-0.6875 0,2.35937 1.15625,0 0,0.875 -1.15625,0 0,3.95313 q 0,0.48437 0.0625,0.625 0.0625,0.14062 0.1875,0.21875 0.14062,0.0781 0.39062,0.0781 0.20313,0 0.51563,-0.0312 z m 5.10907,1.01563 0,-9.3125 6.28125,0 0,1.10937 -5.04688,0 0,2.875 4.375,0 0,1.09375 -4.375,0 0,4.23438 -1.23437,0 z" />
</svg>
